PathFileType  4	(X/Y/Z) C:\Users\antoi\Documents\MyRepositories\mobilecap\ResultsAnalysis
DataRate	CameraRate	NumFrames	NumMarkers	Units	OrigDataRate	OrigDataStartFrame	OrigNumFrames
100.0	100.0	4	51	mm	100.0	77	153
Frame#	Time	r_knee			r_shank_antsup			r_ankle			r_calc			r_5meta			r_toe			L_knee			L_shank_antsup			L_ankle			L_calc			L_5meta			L_toe			r_sh2			r_sh3			r_sh4			L_sh2			L_sh3			r_thigh1			r_thigh2			r_thigh3			r_thigh4			r_thigh5			L_thigh1			L_thigh2			L_thigh3			L_thigh4			r.ASIS			r.PSIS			L.ASIS			L.PSIS			C7			R_Shoulder			L_Shoulder			R_Sternum			L_Sternum			R_humerus			R_elbow_med			R_elbow_lat			R_forearm			R_wrist_radius			R_wrist_ulna			L_humerus			L_elbow_med			L_elbow_lat			L_forearm			L_wrist_radius			L_wrist_ulna			R_HJC			L_HJC			R_HJC_reg			L_HJC_reg			
		X1	Y1	Z1	X2	Y2	Z2	X3	Y3	Z3	X4	Y4	Z4	X5	Y5	Z5	X6	Y6	Z6	X7	Y7	Z7	X8	Y8	Z8	X9	Y9	Z9	X10	Y10	Z10	X11	Y11	Z11	X12	Y12	Z12	X13	Y13	Z13	X14	Y14	Z14	X15	Y15	Z15	X16	Y16	Z16	X17	Y17	Z17	X18	Y18	Z18	X19	Y19	Z19	X20	Y20	Z20	X21	Y21	Z21	X22	Y22	Z22	X23	Y23	Z23	X24	Y24	Z24	X25	Y25	Z25	X26	Y26	Z26	X27	Y27	Z27	X28	Y28	Z28	X29	Y29	Z29	X30	Y30	Z30	X31	Y31	Z31	X32	Y32	Z32	X33	Y33	Z33	X34	Y34	Z34	X35	Y35	Z35	X36	Y36	Z36	X37	Y37	Z37	X38	Y38	Z38	X39	Y39	Z39	X40	Y40	Z40	X41	Y41	Z41	X42	Y42	Z42	X43	Y43	Z43	X44	Y44	Z44	X45	Y45	Z45	X46	Y46	Z46	X47	Y47	Z47	X48	Y48	Z48	X49	Y49	Z49	X50	Y50	Z50	X51	Y51	Z51	

77	0.76000000	783.10417	574.24398	-67.61155	708.88556	436.34245	-81.02300	411.62506	227.95284	-107.38579	361.85378	262.93783	-172.30773	444.78795	81.12638	-90.01946	492.60918	72.64720	-139.15178	927.12635	601.31237	-354.36653	985.85645	404.98427	-317.29650	909.64821	105.23773	-308.63177	851.63366	71.94582	-243.07509	1050.98968	36.56766	-345.99919	1092.41859	66.78297	-287.31760	628.11626	357.84160	-94.37127	661.01901	479.41380	-42.19408	578.88623	404.66020	-46.45220	923.29509	408.17835	-377.54953	916.24975	292.99157	-357.07953	830.43291	862.95447	-33.80984	845.36549	752.67998	-34.75983	784.45385	722.56193	-33.47242	720.01242	851.05582	-63.19106	732.75159	736.41888	-58.17332	913.99149	899.09139	-387.00709	942.00797	767.45239	-370.52242	805.72597	879.01921	-389.11777	838.46618	744.26300	-386.83835	879.02328	1156.51861	-79.13742	687.36321	1180.82270	-158.10849	861.28512	1155.90760	-359.58375	680.65399	1182.92717	-251.26674	740.52695	1678.37294	-224.68613	813.59637	1628.08603	-55.27664	784.92158	1638.81926	-402.33760	874.42552	1583.15501	-202.68916	874.43343	1584.76718	-259.92318	773.89718	1363.95113	26.89844	671.49944	1257.79587	-3.33430	685.38005	1282.21229	65.69087	790.24981	1092.53072	90.41526	829.36100	1004.06563	86.39804	801.25839	1001.23953	113.75554	772.30083	1340.90192	-453.45567	683.65672	1270.98447	-394.69937	698.66327	1264.43730	-470.39003	775.17711	1072.84912	-497.67753	801.64264	995.82855	-490.78548	774.95725	998.36975	-512.22230	803.38965	1058.40657	-115.88285	784.35651	1062.08316	-312.38860	811.31640	1066.00779	-116.84682	797.99648	1070.18517	-301.77841	
78	0.77000000	806.13543	574.90919	-66.95223	730.20025	438.39390	-80.09396	428.38104	237.80582	-105.39371	380.42079	275.80553	-170.02742	453.90139	89.27116	-89.05142	501.59054	78.06446	-137.79107	932.41087	601.11421	-354.50602	989.08653	404.09394	-317.44556	909.89787	105.34716	-308.41264	851.70574	71.94034	-242.96424	1051.03883	36.58512	-345.96898	1092.53889	66.38932	-287.17135	647.42647	361.72621	-93.36464	683.50940	482.50581	-40.88073	599.24987	409.39146	-44.89143	926.23921	407.86344	-377.36919	918.05788	292.79561	-356.70318	846.04258	863.95125	-33.43451	863.46303	753.97047	-34.27409	803.28807	722.64048	-33.09202	736.14588	849.50059	-63.28856	752.06893	734.43231	-58.77722	923.00191	899.23981	-387.12485	949.48693	767.30942	-370.59618	814.48467	880.34106	-389.74267	845.87291	745.43193	-387.26659	887.90728	1157.68242	-78.84662	696.96767	1181.90236	-159.53258	872.46151	1156.92300	-359.56630	690.92662	1184.53893	-252.78415	751.07235	1679.93550	-226.32525	823.44924	1629.58827	-56.61761	795.96133	1639.76568	-403.58991	884.42614	1584.25587	-203.68226	885.02072	1585.95430	-260.88770	783.05345	1365.63527	26.08199	680.33506	1259.79914	-4.14731	694.40017	1284.14430	64.82527	798.32712	1094.09849	89.32820	836.96474	1005.20055	85.52813	808.97751	1002.64817	112.97783	782.66259	1341.94632	-454.96904	693.69866	1272.17753	-396.46084	708.94818	1265.57430	-472.05683	786.09943	1074.12293	-498.85577	812.81823	997.22388	-491.77419	786.23497	999.65727	-513.31789	812.41877	1059.59198	-116.32115	795.03818	1063.28779	-312.98248	820.85345	1066.28835	-117.61366	808.86377	1071.52158	-302.70289	
79	0.78000000	829.03586	576.09579	-66.33240	751.78661	440.80537	-79.31567	445.88595	247.20336	-103.57215	399.55629	287.64091	-167.98187	464.87865	97.52639	-87.89832	512.42889	84.00526	-136.24379	937.49154	600.96791	-354.66310	992.15477	403.31813	-317.50107	910.13005	105.46014	-308.28184	851.76829	72.00165	-242.92144	1051.08269	36.58827	-345.95658	1092.64384	66.08265	-287.07029	667.35219	365.84350	-92.40975	706.17109	485.72923	-39.62117	619.96235	414.08453	-43.46019	929.24327	407.57961	-377.33627	919.92984	292.62545	-356.48287	861.63966	865.27323	-33.02533	881.55240	755.66308	-33.84663	822.10384	723.14284	-32.73400	752.36300	848.35554	-63.20875	771.21608	733.03626	-59.20943	931.85828	899.48036	-387.03566	956.80203	767.25762	-370.56106	823.09094	881.68523	-390.39255	853.19132	746.63578	-387.77283	896.70754	1158.80402	-78.58902	706.51925	1183.00185	-160.90977	883.39331	1157.96087	-359.52351	701.03593	1186.17831	-254.21732	761.57158	1681.45778	-227.88996	833.02271	1631.00583	-57.80133	807.05464	1640.62249	-404.77549	894.40063	1585.37362	-204.50023	895.49364	1587.06544	-261.71627	791.96394	1367.18601	25.36514	688.99863	1261.57026	-4.86603	703.19977	1285.88426	64.04315	806.37399	1095.59849	88.30584	844.66702	1006.34662	84.74712	816.79266	1003.99348	112.29567	793.01236	1342.92535	-456.51134	703.68936	1273.27851	-398.33531	719.26432	1266.64269	-473.82003	797.00269	1075.33356	-500.04482	824.20014	998.68325	-492.70646	797.55622	1000.86442	-514.43311	821.33542	1060.76092	-116.76865	805.50727	1064.51652	-313.56576	830.33708	1066.58448	-118.33401	819.45552	1072.88870	-303.53094	
80	0.79000000	851.70409	577.80838	-65.74544	773.50468	443.54921	-78.68968	464.04434	255.98890	-101.94239	419.01457	298.13083	-166.24294	478.01890	105.64913	-86.49268	525.45054	90.32533	-134.47541	942.40833	600.86595	-354.84490	995.10403	402.65388	-317.41406	910.35871	105.58196	-308.23687	851.81912	72.16074	-242.95400	1051.12176	36.57659	-345.96093	1092.73944	65.84050	-287.00037	687.78018	370.12729	-91.49821	728.86522	489.08351	-38.44373	641.00101	418.75402	-42.14410	932.40549	407.32083	-377.44439	921.95947	292.47889	-356.41810	877.17177	866.95342	-32.61782	899.58185	757.81329	-33.47321	840.82527	724.09080	-32.40149	768.53723	847.67053	-62.98592	790.09143	732.34159	-59.40206	940.53421	899.76308	-386.81745	963.92737	767.23998	-370.47439	831.52498	883.02112	-391.04395	860.34833	747.81771	-388.36051	905.47761	1159.96063	-78.43310	716.04268	1184.16171	-162.19086	894.04823	1159.02945	-359.49542	711.02967	1187.80571	-255.52628	772.02192	1682.94820	-229.35373	842.34872	1632.38300	-58.83153	818.19900	1641.42848	-405.89311	904.34548	1586.52339	-205.14771	905.80601	1588.08905	-262.41988	800.66711	1368.64311	24.70849	697.53161	1263.17042	-5.56207	711.78275	1287.48971	63.28118	814.37109	1097.04545	87.37990	852.42691	1007.52758	84.04676	824.65007	1005.30611	111.69580	803.39262	1343.87158	-458.03644	713.68788	1274.32060	-400.28212	729.66570	1267.68077	-475.64357	807.90527	1076.51102	-501.23766	835.67275	1000.17282	-493.59887	808.90977	1002.02005	-515.57030	830.22576	1061.96721	-117.20922	815.77106	1065.76506	-314.11768	839.74197	1067.04397	-119.00601	829.79408	1074.27484	-304.25283	
